<?xml version="1.0" standalone="no"?><svg xmlns="http://www.w3.org/2000/svg" viewBox="0 0 1440 320"><path fill="#0099ff" fill-opacity="1" d="M0,256L13.3,224C26.7,192,53,128,80,106.7C106.7,85,133,107,160,128C186.7,149,213,171,240,160C266.7,149,293,107,320,80C346.7,53,373,43,400,53.3C426.7,64,453,96,480,133.3C506.7,171,533,213,560,240C586.7,267,613,277,640,282.7C666.7,288,693,288,720,245.3C746.7,203,773,117,800,101.3C826.7,85,853,139,880,165.3C906.7,192,933,192,960,186.7C986.7,181,1013,171,1040,186.7C1066.7,203,1093,245,1120,256C1146.7,267,1173,245,1200,218.7C1226.7,192,1253,160,1280,160C1306.7,160,1333,192,1360,181.3C1386.7,171,1413,117,1427,90.7L1440,64L1440,320L1426.7,320C1413.3,320,1387,320,1360,320C1333.3,320,1307,320,1280,320C1253.3,320,1227,320,1200,320C1173.3,320,1147,320,1120,320C1093.3,320,1067,320,1040,320C1013.3,320,987,320,960,320C933.3,320,907,320,880,320C853.3,320,827,320,800,320C773.3,320,747,320,720,320C693.3,320,667,320,640,320C613.3,320,587,320,560,320C533.3,320,507,320,480,320C453.3,320,427,320,400,320C373.3,320,347,320,320,320C293.3,320,267,320,240,320C213.3,320,187,320,160,320C133.3,320,107,320,80,320C53.3,320,27,320,13,320L0,320Z"></path></svg>